<svg xmlns="http://www.w3.org/2000/svg" width="24" height="24" viewBox="0 0 24 24"><path fill="#4285F4" d="M20.64 12.2c0-.64-.06-1.25-.18-1.85H12v3.69h4.51a4.39 4.39 0 0 1-1.9 2.87v2.39h3.08c1.8-1.66 2.84-4.1 2.84-7.09z"/><path fill="#34A853" d="M12 21c3.12 0 5.76-1.03 7.68-2.81l-3.08-2.39c-1.12.76-2.58 1.2-4.6 1.2-3.54 0-6.53-2.39-7.62-5.6h-3.1v2.46A10.84 10.84 0 0 0 12 21z"/><path fill="#FBBC04" d="M4.38 10.42a8.66 8.66 0 0 1 0-4.84V3.12h-3.1a10.84 10.84 0 0 0 0 17.76l3.1-2.46c-.05-.82-.09-1.65-.09-2.5z"/><path fill="#EA4335" d="M12 3.52c1.61 0 3.06.56 4.21 1.6l2.74-2.74C17.76 1.03 15.12 0 12 0 8.88 0 6.24 1.03 4.32 2.81l3.1 2.46c1.09-3.21 4.08-5.6 7.62-5.6z"/></svg>
